<?xml version="1.0" encoding="UTF-8"?>
<!DOCTYPE svg PUBLIC "-//W3C//DTD SVG 1.1//EN" "http://www.w3.org/Graphics/SVG/1.1/DTD/svg11.dtd">
<svg xmlns="http://www.w3.org/2000/svg" version="1.1" width="400px" height="400px" style="shape-rendering:geometricPrecision; text-rendering:geometricPrecision; image-rendering:optimizeQuality; fill-rule:evenodd; clip-rule:evenodd" xmlns:xlink="http://www.w3.org/1999/xlink">
<g><path style="opacity:0.958" fill="#fcfcfc" d="M 183.5,-0.5 C 194.167,-0.5 204.833,-0.5 215.5,-0.5C 216.73,1.29719 217.396,3.29719 217.5,5.5C 216.507,13.9839 216.174,22.6506 216.5,31.5C 237.34,31.8305 258.007,31.4972 278.5,30.5C 280.903,30.393 282.736,31.393 284,33.5C 284.333,42.8333 284.667,52.1667 285,61.5C 288.411,62.2931 291.911,62.7931 295.5,63C 296.701,63.9025 297.535,65.0692 298,66.5C 298.5,165.833 298.667,265.166 298.5,364.5C 302.846,364.334 307.179,364.501 311.5,365C 313.333,365.5 314.5,366.667 315,368.5C 315.667,377.833 315.667,387.167 315,396.5C 314.487,397.527 313.987,398.527 313.5,399.5C 237.5,399.5 161.5,399.5 85.5,399.5C 85.0133,398.527 84.5133,397.527 84,396.5C 83.3333,387.167 83.3333,377.833 84,368.5C 84.5,366.667 85.6667,365.5 87.5,365C 91.8206,364.501 96.1539,364.334 100.5,364.5C 100.333,265.166 100.5,165.833 101,66.5C 101.465,65.0692 102.299,63.9025 103.5,63C 107.089,62.7931 110.589,62.2931 114,61.5C 114.333,52.1667 114.667,42.8333 115,33.5C 116.264,31.393 118.097,30.393 120.5,30.5C 140.993,31.4972 161.66,31.8305 182.5,31.5C 182.826,22.6506 182.493,13.9839 181.5,5.5C 181.604,3.29719 182.27,1.29719 183.5,-0.5 Z M 202.5,14.5 C 202.5,19.8333 202.5,25.1667 202.5,30.5C 200.5,30.5 198.5,30.5 196.5,30.5C 196.5,25.1667 196.5,19.8333 196.5,14.5C 198.5,13.1667 200.5,13.1667 202.5,14.5 Z M 129.5,45.5 C 176.167,45.5 222.833,45.5 269.5,45.5C 269.5,51.1667 269.5,56.8333 269.5,62.5C 222.833,62.5 176.167,62.5 129.5,62.5C 129.5,56.8333 129.5,51.1667 129.5,45.5 Z M 115.5,77.5 C 171.5,77.5 227.5,77.5 283.5,77.5C 283.777,80.4475 283.444,83.2809 282.5,86C 227.167,86.6667 171.833,86.6667 116.5,86C 115.556,83.2809 115.223,80.4475 115.5,77.5 Z M 115.5,101.5 C 140.833,101.5 166.167,101.5 191.5,101.5C 191.5,189.167 191.5,276.833 191.5,364.5C 166.167,364.5 140.833,364.5 115.5,364.5C 115.5,276.833 115.5,189.167 115.5,101.5 Z M 207.5,101.5 C 232.833,101.5 258.167,101.5 283.5,101.5C 283.5,189.167 283.5,276.833 283.5,364.5C 258.167,364.5 232.833,364.5 207.5,364.5C 207.5,276.833 207.5,189.167 207.5,101.5 Z M 137.5,123.5 C 140.5,123.5 143.5,123.5 146.5,123.5C 146.5,128.5 146.5,133.5 146.5,138.5C 143.5,138.5 140.5,138.5 137.5,138.5C 137.5,133.5 137.5,128.5 137.5,123.5 Z M 161.5,123.5 C 164.5,123.5 167.5,123.5 170.5,123.5C 170.5,128.5 170.5,133.5 170.5,138.5C 167.5,138.5 164.5,138.5 161.5,138.5C 161.5,133.5 161.5,128.5 161.5,123.5 Z M 228.5,123.5 C 231.5,123.5 234.5,123.5 237.5,123.5C 237.5,128.5 237.5,133.5 237.5,138.5C 234.5,138.5 231.5,138.5 228.5,138.5C 228.5,133.5 228.5,128.5 228.5,123.5 Z M 252.5,123.5 C 255.5,123.5 258.5,123.5 261.5,123.5C 261.5,128.5 261.5,133.5 261.5,138.5C 258.5,138.5 255.5,138.5 252.5,138.5C 252.5,133.5 252.5,128.5 252.5,123.5 Z M 146.5,154.5 C 146.5,159.5 146.5,164.5 146.5,169.5C 143.5,169.5 140.5,169.5 137.5,169.5C 137.5,164.167 137.5,158.833 137.5,153.5C 140.609,153.264 143.609,153.597 146.5,154.5 Z M 170.5,169.5 C 167.5,169.5 164.5,169.5 161.5,169.5C 161.5,164.5 161.5,159.5 161.5,154.5C 164.391,153.597 167.391,153.264 170.5,153.5C 170.5,158.833 170.5,164.167 170.5,169.5 Z M 237.5,154.5 C 237.5,159.5 237.5,164.5 237.5,169.5C 234.5,169.5 231.5,169.5 228.5,169.5C 228.5,164.167 228.5,158.833 228.5,153.5C 231.609,153.264 234.609,153.597 237.5,154.5 Z M 261.5,169.5 C 258.5,169.5 255.5,169.5 252.5,169.5C 252.5,164.5 252.5,159.5 252.5,154.5C 255.391,153.597 258.391,153.264 261.5,153.5C 261.5,158.833 261.5,164.167 261.5,169.5 Z M 137.5,210.5 C 148.5,210.5 159.5,210.5 170.5,210.5C 170.5,225.833 170.5,241.167 170.5,256.5C 159.5,256.5 148.5,256.5 137.5,256.5C 137.5,241.167 137.5,225.833 137.5,210.5 Z M 228.5,210.5 C 239.5,210.5 250.5,210.5 261.5,210.5C 261.5,225.833 261.5,241.167 261.5,256.5C 250.5,256.5 239.5,256.5 228.5,256.5C 228.5,241.167 228.5,225.833 228.5,210.5 Z M 137.5,297.5 C 148.5,297.5 159.5,297.5 170.5,297.5C 170.5,312.833 170.5,328.167 170.5,343.5C 159.5,343.5 148.5,343.5 137.5,343.5C 137.5,328.167 137.5,312.833 137.5,297.5 Z M 228.5,297.5 C 239.5,297.5 250.5,297.5 261.5,297.5C 261.5,312.833 261.5,328.167 261.5,343.5C 250.5,343.5 239.5,343.5 228.5,343.5C 228.5,328.167 228.5,312.833 228.5,297.5 Z M 98.5,379.5 C 165.833,379.5 233.167,379.5 300.5,379.5C 300.5,381.5 300.5,383.5 300.5,385.5C 233.167,385.5 165.833,385.5 98.5,385.5C 98.5,383.5 98.5,381.5 98.5,379.5 Z"/></g>
<g><path style="opacity:0.631" fill="#cecece" d="M 196.5,14.5 C 196.5,19.8333 196.5,25.1667 196.5,30.5C 198.5,30.5 200.5,30.5 202.5,30.5C 202.5,25.1667 202.5,19.8333 202.5,14.5C 203.5,19.4032 203.833,25.0698 203.5,31.5C 200.833,31.5 198.167,31.5 195.5,31.5C 195.167,25.0698 195.5,19.4032 196.5,14.5 Z M 202.5,14.5 C 202.5,19.8333 202.5,25.1667 202.5,30.5C 200.5,30.5 198.5,30.5 196.5,30.5C 196.5,25.1667 196.5,19.8333 196.5,14.5C 198.5,13.1667 200.5,13.1667 202.5,14.5 Z"/></g>
<g><path style="opacity:0.624" fill="#cdcdcd" d="M 181.5,5.5 C 182.493,13.9839 182.826,22.6506 182.5,31.5C 161.66,31.8305 140.993,31.4972 120.5,30.5C 140.833,30.5 161.167,30.5 181.5,30.5C 181.5,22.1667 181.5,13.8333 181.5,5.5 Z"/></g>
<g><path style="opacity:0.624" fill="#cdcdcd" d="M 217.5,5.5 C 217.5,13.8333 217.5,22.1667 217.5,30.5C 237.833,30.5 258.167,30.5 278.5,30.5C 258.007,31.4972 237.34,31.8305 216.5,31.5C 216.174,22.6506 216.507,13.9839 217.5,5.5 Z"/></g>
<g><path style="opacity:0.96" fill="#fcfcfc" d="M 125.5,108.5 C 144.503,108.333 163.503,108.5 182.5,109C 184.538,110.236 185.705,112.069 186,114.5C 186.667,135.833 186.667,157.167 186,178.5C 185.654,180.848 184.487,182.681 182.5,184C 163.5,184.667 144.5,184.667 125.5,184C 123.741,182.992 122.574,181.492 122,179.5C 121.333,157.5 121.333,135.5 122,113.5C 122.257,111.093 123.424,109.427 125.5,108.5 Z M 137.5,123.5 C 137.5,128.5 137.5,133.5 137.5,138.5C 140.5,138.5 143.5,138.5 146.5,138.5C 146.5,133.5 146.5,128.5 146.5,123.5C 143.5,123.5 140.5,123.5 137.5,123.5 Z M 161.5,123.5 C 161.5,128.5 161.5,133.5 161.5,138.5C 164.5,138.5 167.5,138.5 170.5,138.5C 170.5,133.5 170.5,128.5 170.5,123.5C 167.5,123.5 164.5,123.5 161.5,123.5 Z M 146.5,154.5 C 146.5,159.5 146.5,164.5 146.5,169.5C 143.5,169.5 140.5,169.5 137.5,169.5C 137.5,164.167 137.5,158.833 137.5,153.5C 140.609,153.264 143.609,153.597 146.5,154.5 Z M 170.5,169.5 C 167.5,169.5 164.5,169.5 161.5,169.5C 161.5,164.5 161.5,159.5 161.5,154.5C 164.391,153.597 167.391,153.264 170.5,153.5C 170.5,158.833 170.5,164.167 170.5,169.5 Z"/></g>
<g><path style="opacity:0.96" fill="#fdfdfd" d="M 216.5,183.5 C 216.938,183.565 217.272,183.399 217.5,183C 215.93,181.603 214.596,180.103 213.5,178.5C 212.337,157.337 212.171,136.004 213,114.5C 213.295,112.069 214.462,110.236 216.5,109C 235.5,108.333 254.5,108.333 273.5,109C 274.416,109.374 275.25,109.874 276,110.5C 277.136,122.433 277.636,134.433 277.5,146.5C 277.333,157.5 277.167,168.5 277,179.5C 276.426,181.492 275.259,182.992 273.5,184C 254.329,184.829 235.329,184.662 216.5,183.5 Z M 228.5,123.5 C 228.5,128.5 228.5,133.5 228.5,138.5C 231.5,138.5 234.5,138.5 237.5,138.5C 237.5,133.5 237.5,128.5 237.5,123.5C 234.5,123.5 231.5,123.5 228.5,123.5 Z M 252.5,123.5 C 252.5,128.5 252.5,133.5 252.5,138.5C 255.5,138.5 258.5,138.5 261.5,138.5C 261.5,133.5 261.5,128.5 261.5,123.5C 258.5,123.5 255.5,123.5 252.5,123.5 Z M 237.5,154.5 C 237.5,159.5 237.5,164.5 237.5,169.5C 234.5,169.5 231.5,169.5 228.5,169.5C 228.5,164.167 228.5,158.833 228.5,153.5C 231.609,153.264 234.609,153.597 237.5,154.5 Z M 261.5,169.5 C 258.5,169.5 255.5,169.5 252.5,169.5C 252.5,164.5 252.5,159.5 252.5,154.5C 255.391,153.597 258.391,153.264 261.5,153.5C 261.5,158.833 261.5,164.167 261.5,169.5 Z"/></g>
<g><path style="opacity:0.631" fill="#cecece" d="M 137.5,169.5 C 140.5,169.5 143.5,169.5 146.5,169.5C 146.5,164.5 146.5,159.5 146.5,154.5C 147.5,159.068 147.833,164.401 147.5,170.5C 143.379,170.837 140.045,170.504 137.5,169.5 Z"/></g>
<g><path style="opacity:0.631" fill="#cfcfcf" d="M 161.5,154.5 C 161.5,159.5 161.5,164.5 161.5,169.5C 164.5,169.5 167.5,169.5 170.5,169.5C 167.955,170.504 164.621,170.837 160.5,170.5C 160.167,164.401 160.5,159.068 161.5,154.5 Z"/></g>
<g><path style="opacity:0.631" fill="#cecece" d="M 228.5,169.5 C 231.5,169.5 234.5,169.5 237.5,169.5C 237.5,164.5 237.5,159.5 237.5,154.5C 238.5,159.068 238.833,164.401 238.5,170.5C 234.379,170.837 231.045,170.504 228.5,169.5 Z"/></g>
<g><path style="opacity:0.631" fill="#cfcfcf" d="M 252.5,154.5 C 252.5,159.5 252.5,164.5 252.5,169.5C 255.5,169.5 258.5,169.5 261.5,169.5C 258.955,170.504 255.621,170.837 251.5,170.5C 251.167,164.401 251.5,159.068 252.5,154.5 Z"/></g>
<g><path style="opacity:0.835" fill="#eaeaea" d="M 213.5,178.5 C 214.596,180.103 215.93,181.603 217.5,183C 217.272,183.399 216.938,183.565 216.5,183.5C 214.273,182.599 213.273,180.933 213.5,178.5 Z"/></g>
<g><path style="opacity:0.943" fill="#fcfcfc" d="M 124.5,195.5 C 143.836,195.333 163.17,195.5 182.5,196C 184.538,197.236 185.705,199.069 186,201.5C 186.667,222.833 186.667,244.167 186,265.5C 185.654,267.848 184.487,269.681 182.5,271C 163.5,271.667 144.5,271.667 125.5,271C 123.741,269.992 122.574,268.492 122,266.5C 121.333,244.5 121.333,222.5 122,200.5C 122.366,198.548 123.199,196.882 124.5,195.5 Z M 137.5,210.5 C 137.5,225.833 137.5,241.167 137.5,256.5C 148.5,256.5 159.5,256.5 170.5,256.5C 170.5,241.167 170.5,225.833 170.5,210.5C 159.5,210.5 148.5,210.5 137.5,210.5 Z"/></g>
<g><path style="opacity:0.944" fill="#fcfcfc" d="M 216.5,270.5 C 216.938,270.565 217.272,270.399 217.5,270C 215.93,268.603 214.596,267.103 213.5,265.5C 212.337,244.337 212.171,223.004 213,201.5C 213.295,199.069 214.462,197.236 216.5,196C 235.833,195.333 255.167,195.333 274.5,196C 275,196.5 275.5,197 276,197.5C 277.136,209.433 277.636,221.433 277.5,233.5C 277.647,245.259 277.147,256.926 276,268.5C 275.167,269.333 274.333,270.167 273.5,271C 254.329,271.829 235.329,271.662 216.5,270.5 Z M 228.5,210.5 C 228.5,225.833 228.5,241.167 228.5,256.5C 239.5,256.5 250.5,256.5 261.5,256.5C 261.5,241.167 261.5,225.833 261.5,210.5C 250.5,210.5 239.5,210.5 228.5,210.5 Z"/></g>
<g><path style="opacity:0.78" fill="#e9e9e9" d="M 213.5,265.5 C 214.596,267.103 215.93,268.603 217.5,270C 217.272,270.399 216.938,270.565 216.5,270.5C 214.273,269.599 213.273,267.933 213.5,265.5 Z"/></g>
<g><path style="opacity:0.943" fill="#fcfcfc" d="M 124.5,282.5 C 143.836,282.333 163.17,282.5 182.5,283C 184.538,284.236 185.705,286.069 186,288.5C 186.667,309.833 186.667,331.167 186,352.5C 185.654,354.848 184.487,356.681 182.5,358C 163.5,358.667 144.5,358.667 125.5,358C 124.667,357.167 123.833,356.333 123,355.5C 121.355,332.922 121.022,310.255 122,287.5C 122.366,285.548 123.199,283.882 124.5,282.5 Z M 137.5,297.5 C 137.5,312.833 137.5,328.167 137.5,343.5C 148.5,343.5 159.5,343.5 170.5,343.5C 170.5,328.167 170.5,312.833 170.5,297.5C 159.5,297.5 148.5,297.5 137.5,297.5 Z"/></g>
<g><path style="opacity:0.944" fill="#fcfcfc" d="M 216.5,357.5 C 216.938,357.565 217.272,357.399 217.5,357C 215.93,355.603 214.596,354.103 213.5,352.5C 212.337,331.337 212.171,310.004 213,288.5C 213.295,286.069 214.462,284.236 216.5,283C 235.833,282.333 255.167,282.333 274.5,283C 275,283.5 275.5,284 276,284.5C 277.136,296.433 277.636,308.433 277.5,320.5C 277.647,332.259 277.147,343.926 276,355.5C 275.167,356.333 274.333,357.167 273.5,358C 254.329,358.829 235.329,358.662 216.5,357.5 Z M 228.5,297.5 C 228.5,312.833 228.5,328.167 228.5,343.5C 239.5,343.5 250.5,343.5 261.5,343.5C 261.5,328.167 261.5,312.833 261.5,297.5C 250.5,297.5 239.5,297.5 228.5,297.5 Z"/></g>
<g><path style="opacity:0.78" fill="#e9e9e9" d="M 213.5,352.5 C 214.596,354.103 215.93,355.603 217.5,357C 217.272,357.399 216.938,357.565 216.5,357.5C 214.273,356.599 213.273,354.933 213.5,352.5 Z"/></g>
</svg>
